<?xml version="1.0" encoding="UTF-8" standalone="no"?>
<svg
   xmlns:dc="http://purl.org/dc/elements/1.1/"
   xmlns:cc="http://creativecommons.org/ns#"
   xmlns:rdf="http://www.w3.org/1999/02/22-rdf-syntax-ns#"
   xmlns:svg="http://www.w3.org/2000/svg"
   xmlns="http://www.w3.org/2000/svg"
   xmlns:sodipodi="http://sodipodi.sourceforge.net/DTD/sodipodi-0.dtd"
   xmlns:inkscape="http://www.inkscape.org/namespaces/inkscape"
   viewBox="0 0 290.01 70"
   version="1.1"
   id="svg26"
   sodipodi:docname="logo1.svg"
   inkscape:version="0.92.4 5da689c313, 2019-01-14">
  <metadata
     id="metadata32">
    <rdf:RDF>
      <cc:Work
         rdf:about="">
        <dc:format>image/svg+xml</dc:format>
        <dc:type
           rdf:resource="http://purl.org/dc/dcmitype/StillImage" />
        <dc:title>logo</dc:title>
      </cc:Work>
    </rdf:RDF>
  </metadata>
  <defs
     id="defs30" />
  <sodipodi:namedview
     pagecolor="#ffffff"
     bordercolor="#666666"
     borderopacity="1"
     objecttolerance="10"
     gridtolerance="10"
     guidetolerance="10"
     inkscape:pageopacity="0"
     inkscape:pageshadow="2"
     inkscape:window-width="1366"
     inkscape:window-height="713"
     id="namedview28"
     showgrid="false"
     inkscape:zoom="0.86203921"
     inkscape:cx="145.005"
     inkscape:cy="35"
     inkscape:window-x="0"
     inkscape:window-y="27"
     inkscape:window-maximized="1"
     inkscape:current-layer="svg26" />
  <title
     id="title2">logo</title>
  <path
     d="m 121.36999,29.000078 -9.39274,21.048191 -4.49994,0.02296 13.84677,-30.07103 14.15286,29.92819 -4.49994,0.02296 z"
     id="path6"
     inkscape:connector-curvature="0" />
  <path
     d="m 139.35884,26.000004 v -4 h 20 v 4 h -8 V 51 h -4 V 26.000004 Z"
     id="path12"
     inkscape:connector-curvature="0" />
  <path
     d="m 204.64016,22.000004 h 4 V 51 h -4 z"
     id="path14"
     inkscape:connector-curvature="0" />
  <path
     d="m 66.92048,28.18 a 0.94,0.94 0 0 1 -1.39,0 l -4.36,-4.65 -4.41,4.7 a 0.94,0.94 0 0 1 -1.39,0 1.1,1.1 0 0 1 0,-1.49 l 5.1,-5.44 a 0.94,0.94 0 0 1 1.39,0 l 5.06,5.39 a 1.1,1.1 0 0 1 0,1.49 z m -5.77,-0.41 a 1,1 0 0 1 1,1 c 0,11.18 -7.08,20.23 -15.77,20.23 -8.69,0 -15.77,-9.05 -15.77,-20.18 a 1,1 0 1 1 2,0 c 0,10 6.19,18.09 13.8,18.09 7.61,0 13.8,-8.11 13.8,-18.09 a 1,1 0 0 1 0.95,-1.05 z"
     id="path24"
     style="fill:#008000;fill-rule:evenodd"
     inkscape:connector-curvature="0" />
  <text
     xml:space="preserve"
     style="font-style:normal;font-weight:normal;font-size:40px;line-height:1.25;font-family:sans-serif;letter-spacing:0px;word-spacing:0px;fill:#000000;fill-opacity:1;stroke:none"
     x="75.402603"
     y="49.439358"
     id="text3739"><tspan
       sodipodi:role="line"
       id="tspan3737"
       x="75.402603"
       y="49.439358">K</tspan></text>
  <text
     xml:space="preserve"
     style="font-style:normal;font-weight:normal;font-size:40px;line-height:1.25;font-family:sans-serif;letter-spacing:0px;word-spacing:0px;fill:#000000;fill-opacity:1;stroke:none"
     x="166.20581"
     y="51.119278"
     id="text3743"><tspan
       sodipodi:role="line"
       id="tspan3741"
       x="166.20581"
       y="51.119278">R</tspan></text>
  <text
     xml:space="preserve"
     style="font-style:normal;font-weight:normal;font-size:40px;line-height:1.25;font-family:sans-serif;letter-spacing:0px;word-spacing:0px;fill:#000000;fill-opacity:1;stroke:none"
     x="214.92749"
     y="50.279324"
     id="text3747"><tspan
       sodipodi:role="line"
       id="tspan3745"
       x="214.92749"
       y="50.279324">N</tspan></text>
  <text
     xml:space="preserve"
     style="font-style:normal;font-weight:normal;font-size:40px;line-height:1.25;font-family:sans-serif;letter-spacing:0px;word-spacing:0px;fill:#000000;fill-opacity:1;stroke:none"
     x="249.4086"
     y="50.27932"
     id="text3751"><tspan
       sodipodi:role="line"
       id="tspan3749"
       x="249.4086"
       y="50.27932">G</tspan></text>
</svg>
